<?xml version="1.0" encoding="utf-8"?>
<!-- Svg Vector Icons : http://www.onlinewebfonts.com/icon -->
<!DOCTYPE svg PUBLIC "-//W3C//DTD SVG 1.1//EN" "http://www.w3.org/Graphics/SVG/1.1/DTD/svg11.dtd">
<svg version="1.1" xmlns="http://www.w3.org/2000/svg" xmlns:xlink="http://www.w3.org/1999/xlink" x="0px" y="0px" viewBox="0 0 1000 1000" enable-background="new 0 0 1000 1000" xml:space="preserve">
<metadata> Svg Vector Icons : http://www.onlinewebfonts.com/icon </metadata>
<g><path d="M562.9,348.2L185.7,725.5l44.5,44.5l377.2-377.3L562.9,348.2z M651.8,437.1L274.6,814.4l88.9,88.9l377.3-377.2L651.8,437.1z M518.4,303.8L474,259.3L96.7,636.6l44.5,44.5L518.4,303.8z M971.6,206.3L793.8,28.4c-24.6-24.6-64.3-24.6-88.9,0L597.5,135.8l266.7,266.8l107.3-107.4C996.1,270.7,996.1,230.9,971.6,206.3z M10,990h188.6L10,801.4V990z M450.1,990h440.1v-62.9H450.1V990z"/></g>
</svg>