<?xml version="1.0" encoding="utf-8"?>
<!-- Svg Vector Icons : http://www.onlinewebfonts.com/icon -->
<!DOCTYPE svg PUBLIC "-//W3C//DTD SVG 1.1//EN" "http://www.w3.org/Graphics/SVG/1.1/DTD/svg11.dtd">
<svg version="1.1" xmlns="http://www.w3.org/2000/svg" xmlns:xlink="http://www.w3.org/1999/xlink" x="0px" y="0px" viewBox="0 0 1000 1000" enable-background="new 0 0 1000 1000" xml:space="preserve">
<metadata> Svg Vector Icons : http://www.onlinewebfonts.com/icon </metadata>
<g><path d="M513.3,985.4c-3.9,3.1-8.6,4.6-13.3,4.6c-4.7,0-9.4-1.5-13.3-4.6C472.2,974,132.3,659.5,132.3,377.5C132.3,174.9,297.3,10,500,10c202.7,0,367.7,164.9,367.7,367.5C867.7,659.5,527.8,974,513.3,985.4z M500,205.9c-94.8,0-171.6,76.8-171.6,171.6c0,94.8,76.8,171.6,171.6,171.6c94.8,0,171.6-76.8,171.6-171.6C671.6,282.7,594.8,205.9,500,205.9z"/></g>
</svg>