<?xml version="1.0" encoding="utf-8"?>
<!-- Svg Vector Icons : http://www.onlinewebfonts.com/icon -->
<!DOCTYPE svg PUBLIC "-//W3C//DTD SVG 1.1//EN" "http://www.w3.org/Graphics/SVG/1.1/DTD/svg11.dtd">
<svg version="1.1" xmlns="http://www.w3.org/2000/svg" xmlns:xlink="http://www.w3.org/1999/xlink" x="0px" y="0px" viewBox="0 0 1000 1000" enable-background="new 0 0 1000 1000" xml:space="preserve">
<metadata> Svg Vector Icons : http://www.onlinewebfonts.com/icon </metadata>
<g><path d="M494.1,814.7c-135.1,0-270.1,0.6-405.1-0.6C70,814,39.5,828.5,33.6,801c-5.9-27-15-61.1,9.7-85.4C149.3,611.1,193.6,480.3,216,337.3c13.6-86.8,64.7-152.6,142.3-196c30.1-16.9,55.7-33.2,63.1-73.8c6.5-35.6,37.6-56.2,76.3-57.4c41.5-1.2,75,19.4,82.5,57.8c7.9,40.4,33.4,56.6,63.3,73.6c86.3,48.9,133.4,124.3,147.2,221.4c18.5,130.5,65.1,248.9,159.1,343.4c30.5,30.6,24.8,64.8,17.8,95c-6.5,27.6-40.5,12.8-61.7,12.9C768.6,815.4,631.4,814.7,494.1,814.7z"/><path d="M505.7,859c21.4,0,42.9-1.3,64.1,0.2c20.3,1.7,49.6-11.1,58.4,11.6c9.1,23.4-6.2,49.3-23,69.6c-32.5,39.8-75.5,55.1-125.4,47.8c-47.7-6.8-82.5-33.6-101.3-78.5c-12.7-30.3-14.8-54.4,31.1-51.3C441.5,860.6,473.7,859,505.7,859z"/></g>
</svg>