<?xml version="1.0" encoding="utf-8"?>
<!-- Svg Vector Icons : http://www.onlinewebfonts.com/icon -->
<!DOCTYPE svg PUBLIC "-//W3C//DTD SVG 1.1//EN" "http://www.w3.org/Graphics/SVG/1.1/DTD/svg11.dtd">
<svg version="1.1" xmlns="http://www.w3.org/2000/svg" xmlns:xlink="http://www.w3.org/1999/xlink" x="0px" y="0px" viewBox="0 0 1000 1000" enable-background="new 0 0 1000 1000" xml:space="preserve">
<metadata> Svg Vector Icons : http://www.onlinewebfonts.com/icon </metadata>
<g><path d="M560.6,46.3v118.9c24.4,4.4,48.2,11.5,71.3,21.2c22.3,9.4,43.2,21.1,62.8,34.9L779,137l85.6,85.5l-84.8,84.8c12.8,18.6,23.6,38.5,32.5,59.4c9.8,23.1,16.9,47,21.3,71.4h120.2v121H833.5c-4.4,24.5-11.5,48.3-21.3,71.4c-9.1,21.4-20.2,41.6-33.3,60.6l85.6,85.6L779,862.3l-85.4-85.4c-19.3,13.4-39.9,24.8-61.7,34.1c-23,9.7-46.9,16.8-71.3,21.2v121.5h-121V832.3c-24.5-4.4-48.4-11.5-71.6-21.3c-21-8.9-40.8-19.7-59.4-32.5l-85.7,85.7l-85.6-85.5l85.2-85.2c-13.8-19.6-25.4-40.6-34.9-62.8c-9.8-23.1-16.9-47-21.3-71.4H46.3v-121h120.2c4.4-24.5,11.5-48.3,21.3-71.4c9.2-21.8,20.6-42.4,34.1-61.7l-84.4-84.4l85.6-85.5l84.6,84.6c18.9-13.1,39.2-24.2,60.6-33.3c23.1-9.8,47.1-16.9,71.6-21.3V46.3L560.6,46.3 M560.6,10h-121c-20,0-36.3,16.3-36.3,36.3v89.8c-16.8,4.5-33.4,10.1-49.4,16.9c-14.1,6-27.9,12.9-41.3,20.5l-64.1-64.1c-7.1-7.1-16.4-10.6-25.7-10.6c-9.3,0-18.6,3.5-25.7,10.6L111.7,195c-14.2,14.2-14.2,37.2,0,51.3l63.8,63.8c-8,13.7-15.1,27.9-21.2,42.5c-6.8,16-12.4,32.5-16.9,49.3H46.3c-20,0-36.3,16.3-36.3,36.3v121c0,20,16.3,36.3,36.3,36.3h91.1c4.5,16.8,10.1,33.3,16.9,49.3c6.4,15,13.7,29.6,21.9,43.7L111.7,753c-6.8,6.8-10.6,16-10.6,25.7c0,9.6,3.8,18.9,10.6,25.7l85.6,85.5c7.1,7.1,16.4,10.6,25.7,10.6c9.3,0,18.6-3.5,25.7-10.6l65.3-65.3c12.9,7.4,26.3,14,40.1,19.8c16.1,6.8,32.6,12.5,49.4,16.9v92.4c0,20,16.3,36.3,36.3,36.3h121c20,0,36.3-16.3,36.3-36.3v-92.4c16.7-4.5,33.2-10.1,49.1-16.9c14.6-6.2,28.8-13.3,42.5-21.2l64.8,64.8c7.1,7.1,16.4,10.6,25.7,10.6c9.3,0,18.6-3.5,25.7-10.6l85.6-85.5c14.2-14.2,14.2-37.2,0-51.3l-65-65c7.7-13.3,14.6-27.1,20.5-41.3c6.8-16,12.4-32.5,16.9-49.3h91.1c20,0,36.3-16.2,36.3-36.3v-121c0-20-16.2-36.3-36.3-36.3h-91.1c-4.5-16.8-10.1-33.3-16.9-49.3c-5.8-13.7-12.4-27.1-19.8-40.1l64.3-64.3c14.2-14.2,14.2-37.2,0-51.3l-85.6-85.5c-6.8-6.8-16-10.6-25.7-10.6s-18.9,3.8-25.7,10.6l-63.6,63.6c-14.1-8.2-28.7-15.6-43.7-21.9c-16-6.7-32.4-12.4-49.1-16.8V46.3C596.9,26.3,580.7,10,560.6,10L560.6,10z"/><path d="M500,700.2c-110.1,0-199.6-89.5-199.6-199.6C300.4,390.5,389.9,301,500,301c110.1,0,199.6,89.6,199.6,199.6C699.6,610.7,610.1,700.2,500,700.2z M500,337.3c-90.1,0-163.3,73.3-163.3,163.3S409.9,663.9,500,663.9c90.1,0,163.3-73.3,163.3-163.3S590.1,337.3,500,337.3z"/></g>
</svg>