<?xml version="1.0" encoding="utf-8"?>
<!-- Svg Vector Icons : http://www.onlinewebfonts.com/icon -->
<!DOCTYPE svg PUBLIC "-//W3C//DTD SVG 1.1//EN" "http://www.w3.org/Graphics/SVG/1.1/DTD/svg11.dtd">
<svg version="1.1" xmlns="http://www.w3.org/2000/svg" xmlns:xlink="http://www.w3.org/1999/xlink" x="0px" y="0px" viewBox="0 0 1000 1000" enable-background="new 0 0 1000 1000" xml:space="preserve">
<metadata> Svg Vector Icons : http://www.onlinewebfonts.com/icon </metadata>
<g><g><path d="M500,42.2c135,0,250.4,47.5,346.2,142.6C942.1,279.9,990,395.7,990,532.2c0,89-21.9,171.4-65.6,247.3S821.3,914.9,746.2,957.8l-50.6-85.1c59.8-35.3,107.7-83.2,143.8-143.8c36-60.6,54.1-126.1,54.1-196.7c0-107.4-38.3-199.4-115-276.1s-169.5-115-278.4-115c-108.9,0-201.7,38.3-278.4,115c-76.7,76.7-115,168.7-115,276.1c0,72.1,17.6,138,52.9,197.8c35.3,59.8,82.8,107.4,142.6,142.6l-48.3,85.1c-75.1-42.9-134.6-102.4-178.3-178.3S10,621.2,10,532.2c0-136.5,47.9-252.3,143.8-347.4C249.6,89.8,365,42.2,500,42.2z M794.5,532.2c0,53.7-13.4,103.1-40.3,148.4c-26.8,45.2-62.5,80.9-107,107l-48.3-85.1c64.4-38.3,96.6-95.1,96.6-170.2c0-53.7-19.2-99.7-57.5-138c-38.3-38.3-84.4-57.5-138-57.5c-53.7,0-99.7,19.2-138,57.5c-38.3,38.3-57.5,84.4-57.5,138c0,75.1,32.2,131.9,96.6,170.2l-48.3,85.1c-44.5-26.1-80.1-61.7-107-107c-26.8-45.2-40.3-94.7-40.3-148.4c0-81.3,28.8-150.7,86.3-208.2s126.9-86.3,208.2-86.3c81.3,0,150.7,28.8,208.2,86.3S794.5,450.9,794.5,532.2z M500,435.6c26.1,0,49.1,9.6,69,28.8c19.9,19.2,29.9,41.8,29.9,67.9s-10,49.1-29.9,69c-19.9,19.9-42.9,29.9-69,29.9s-49.1-10-69-29.9c-19.9-19.9-29.9-42.9-29.9-69s10-48.7,29.9-67.9S473.9,435.6,500,435.6z"/></g></g>
</svg>