<?xml version="1.0" encoding="utf-8"?>
<!-- Svg Vector Icons : http://www.onlinewebfonts.com/icon -->
<!DOCTYPE svg PUBLIC "-//W3C//DTD SVG 1.1//EN" "http://www.w3.org/Graphics/SVG/1.1/DTD/svg11.dtd">
<svg version="1.1" xmlns="http://www.w3.org/2000/svg" xmlns:xlink="http://www.w3.org/1999/xlink" x="0px" y="0px" viewBox="0 0 1000 1000" enable-background="new 0 0 1000 1000" xml:space="preserve">
<metadata> Svg Vector Icons : http://www.onlinewebfonts.com/icon </metadata>
<g><path d="M148.6,13.6h-2.4v-0.3c0-0.8-0.7-1.5-1.5-1.5c-0.8,0-1.5,0.7-1.5,1.5v7.8c0,0.8,0.7,1.5,1.5,1.5c0.8,0,1.5-0.7,1.5-1.5v-0.3h2.4v1.8c0,0.8,0.3,1.6,0.9,2.1l3,3.1c0.5,0.5,1.2,0.8,2,0.8h2.5l1.2,3.6c0.3,1,1.3,1.8,2.4,1.8h9.9c0.8,0,1.5-0.7,1.5-1.5s-0.7-1.5-1.5-1.5h-8.1c-0.7,0-1.2-0.5-1.2-1.2s0.5-1.2,1.2-1.2h7.2c1.3,0,2.4-1.1,2.4-2.4V12.4c0-1.3-1.1-2.4-2.4-2.4H151c-1.3,0-2.4,1.1-2.4,2.4V13.6z M155.2,17.7v-3.4c0-0.7,0.6-1.3,1.3-1.3h11.2c0.7,0,1.3,0.6,1.3,1.3v3.4c0,0.7-0.6,1.3-1.3,1.3h-11.2C155.8,19,155.2,18.4,155.2,17.7z M156.7,22.6c0.8,0,1.5,0.7,1.5,1.5c0,0.8-0.7,1.5-1.5,1.5c-0.8,0-1.5-0.7-1.5-1.5C155.2,23.3,155.8,22.6,156.7,22.6z"/><path d="M824.8,503.1h-83.3v-76.9c0-28.3-22.9-51.3-51.3-51.3h-205c-28.3,0-51.3,22.9-51.3,51.3v76.9h-83.3c-17.7,0-32,14.4-32,32c0,17.7,14.4,32,32,32h19.2v371.6c0,28.3,22.9,51.3,51.3,51.3h333.2c28.3,0,51.3-22.9,51.3-51.3V567.1h19.2c17.7,0,32-14.4,32-32S842.5,503.1,824.8,503.1z M677.5,503.1H498.1v-35.9c0-15.6,12.6-28.2,28.2-28.2h123c15.6,0,28.2,12.6,28.2,28.2V503.1L677.5,503.1z M498.1,592.8v307.5c0,14.1-11.5,25.6-25.6,25.6c-14.1,0-25.6-11.5-25.6-25.6V592.8c0-14.1,11.5-25.6,25.6-25.6C486.5,567.1,498.1,578.7,498.1,592.8z M613.4,592.8v307.5c0,14.1-11.5,25.6-25.6,25.6s-25.6-11.5-25.6-25.6V592.8c0-14.1,11.5-25.6,25.6-25.6S613.4,578.7,613.4,592.8z M728.7,592.8v307.5c0,14.1-11.5,25.6-25.6,25.6c-14.1,0-25.6-11.5-25.6-25.6V592.8c0-14.1,11.5-25.6,25.6-25.6C717.2,567.1,728.7,578.7,728.7,592.8z"/></g>
</svg>